/* XPM */
static char *aac42e919fb742d4e6d66b09b68dd409SvCzHrv7UanuVocx[] = {
/* columns rows colors chars-per-pixel */
"96 96 6 1 ",
"  c #000100",
". c #000001",
"X c #FED000",
"o c #FFD000",
"O c #FFD100",
"+ c #FFD001",
/* pixels */
"oooooooooooooooo++++++++++++++++++++++++oooooooooooooooooooooooooooooooooooooooooooooooooooooooo",
"oooooooooooooooo++++++++++++++++++++++++oooooooooooooooooooooooooooooooooooooooooooooooooooooooo",
"oooooooooooooooo++++++++++++++++++++++++oooooooooooooooooooooooooooooooooooooooooooooooooooooooo",
"oooooooooooooooo++++++++++++++++++++++++oooooooooooooooooooooooooooooooooooooooooooooooooooooooo",
"oooooooooooooooo++++++++++++++++oooo+++++++o++++oooooooooooooooooooooooooooooooooooooooooooooooo",
"oooooooooooooooo++++++++++++++++oooo++++++++++++oooooooooooooooooooooooooooooooooooooooooooooooo",
"oooooooooooooooo++++++++++++++++oooo++++++++++++ooooooooooooooooooooooooooooooooooooooooo+oooooo",
"oooooooooooooooo++++++++++++++++ooo+++++++++++++oooooooooooooooooooooooooooooooo+ooooooooooooooo",
"oooooooooooooooo++++++++++++++++oooo++++++++++++oooooooooooooooooooooooooooooooooooooo+ooooooooo",
"oooooooooooooooo++++++++++++++++oooo++++++++++++oooooooooooooooooooooooooooooooooooooooooooooooo",
"oooooooooooooooo++++++++++++++++oooo++++++++++++oooooooooooooooooooooooooooooooooooooooooooooooo",
"oooooooooooooooo++++++++++++++++oooo++++++++++++oooooooooooooooooooooooooooooooooooooooooooooooo",
"oooooooooooooooo++++++++++++++++oo++++++++++++++oooooooooooooooooooooooooooooooooooooooooooooooo",
"oooooooooooooooo++++++++++++++++oo++++++++++++++oooooooooooooooooooooooooooooooo+ooooooooooooooo",
"oooooooooooooooo++++++++++++++++o+++++++++++++++oooooooooooooooooooooooooooooooooooooooooooooooo",
"oooooooooooooooo++++++++++++           +++++++++ooooooooooooooooooooooooooooooo+ooo+oooooooooooo",
"oooooooo+++++++++++++++++   +++++++++++   ++++++oooo++++++++++++++++++++++++++++oooooooooooooooo",
"oooooooo++++++++++++++   ++++++++++++++o++   +++oooo++++++++++++++++++++++++++++oooooooooooooooo",
"oooooooo+++++++++++++ ++++++++++++++++oo+++++ ++oooo++++++++++++++++++++++++++++oooooooooooooooo",
"oooooooo+++++++++++  +++++++++++++++++oo++++++  oooo++++++++++++++++++++++++++++oooooooooooooooo",
"oooooooo++++++++++ +++++++++++++++oooooo++++++++ o++++++++++++++++++++oo++++++++oooooooooooooooo",
"oooooooo+++++++++ ++++++++++++++++oooooo+++++++++ +++++++++++++++++        +o+++oooooooooooooooo",
"oooooooo++++++++ +++++++++++++++oooooooo++++++++++ +++++++++++++   +++oo+++   ++oooooooooooooooo",
"oooooooo+++++++ ++++++++++++++++ooooooooo++++++++++ +++++++++++ ++++++oo++++++ +oooooooooooooooo",
"oooooooooooooo +++++++++++++++++oooooooo++++++++++++ +++++++++ +oooooooo+++++++ oo++++++oooooooo",
"ooooooooooooo o+++++++++++++++++oooooooo+++++++++++++ +++++++ ++oooooooo++++++++ o++++++oooooooo",
"oooooooooooo ooo++++++++++++++++oooooooo++++++++           + +++oooooooo++++++++o ++++++oooooooo",
"oooooooooooo ooo++++++++++++++++oooooooo++++    ++++++ ++++    +oooooooo++++++++oo +++++oooooooo",
"ooooooooooo oooo++++++++++++++++++++oooo+   oo+++++++++ ++ ++++   +++++++++++++++++ ++++oooooooo",
"ooooooooooo oooo++++++++++++++++++++oo+  o++ooo++++++++ ++ +++++++  +++++++++++++++ ++++oooooooo",
"ooooooooooo oooo+++++++++++++++++++++  +oooooo+++++++++ ++ +++++++++  ++++++++++++o ++++oooooooo",
"oooooooooo ooooo+++++++++++++++++++  +++oooooo++++++++++  ++++++++++++  ++++++++++o+ +++oooooooo",
"++++++++++ +++++++++++++oooo++++++ +++++oooooooooooooooo  ++++++oooooooo +++++++++++ ooooooooooo",
"++++++++++ +++++++++++++ooooo+++  ++++++oooooooooooooooo  ++++++oooooooo+  +++++++++ ooooooooooo",
"++++++++++ +++++++++++++oooooo+ ++++++++oooooooooooooooo  ++++++oooooooo+++ ++++++++ ooooooooooo",
"++++++++++ +++++++++++++oooooo +++++++++oooooooooooooooo  ++++++oooooooo++++ +++++++ ooooooooooo",
"++++++++++ +++++++++++++oooo+ ++++++++++oooooooooooooooo  ++++++oooooooo+++++ ++++++ +++oooooooo",
"++++++++++ +++++++++++++oooo o++++++++++oooooooooooooooo  ++++++oooooooo++++++ +++++ +++oooooooo",
"++++++++++ +++++++++++++++o oooo++++++++oooooooooooooooo  ++++++oooooooo+++++++ ++++ +++oooooooo",
"++++++++++ ++++++++++++++++ ooo+++++++++oooooooooooooooo + +++++oooooooo+++++++ +++ ++++oooooooo",
"++++++++++ +++++++++++++++ +++++++ooooooooooooooooooo+++ + +++++oooooooo++++++++ ++ +++++ooooooo",
"+++++++++++ +++++++++++++ ++++++++ooooooooooooooooooo++ ++ +++++oooooooo+++++++++ + ++++oooooooo",
"+++++++++++ ++++++++oooo+ ++++++oooooooooooooooooooooo+ +++ ++++oooooooo+++++++++  +++++oooooooo",
"+++++++++++ ++++++++oooo +++++++oooooooooooooooooooooo+ ++++ +++oooooooo+++++++++  +++++oooooooo",
"oooo++++++++ +++++++oooo +++++++oooooooooooooooooooo++ ++++++ ++oooo++++++++++++ + +++++oooooooo",
"oooo++++++++ +++++++ooo oo++o+++oooooooooooooooooooo++ +++++++ +o+oo+++++++++++ +++ ++++oooooooo",
"oooo+++++++++ ++++++++o oooooo++oooooooooooooooooooo+ +++++++++ ++++++++++++++ o+++ ++++oooooooo",
"ooooo+++++++++ +++++++ +oooooo++oooooooooooooooooooo +++++++++++   ++++++++   +o++++ +++oooooooo",
"ooooooooooooooo ++++++ +++++++++++++++++++++++++ooo ++++++ooooooooo        +oooo++++ +++oooo++++",
"oooooooooooooooo +++++ +++++++++++++++++++++++++oo o++++++++oooooooo+++++o++oooo++++ +++oooo++++",
"oooooooooooooooo+ ++++ ++++++++++++++++++++++++++ ++++++++++oooooooo++++oo++oooo++++ +++oo++++++",
"oooooooooooooooo++ ++ ++++++++++++++++++++++++++ +++++++++++oooooooo++++o+++oooo+++++ ++oo++++++",
"ooooooooooooooooooo   +++++++++++++++++++++ooo  ++++++++oooooooooooooooooooooooo++++o ++oooo++++",
"oooooooooooooooooooo+ ++++++++++++++++++++ooo oo++++++++oooooooooooooooooooooooo++++o ++oooo++++",
"oooooooooooooooooooo+    +++++++++++++++++   ooo++++++++oooooooooooooooooooooooo++++o oooooo++++",
"oooooooooooooooooooo+ +++   +++++++++++   ++oooo++++++++oooooooooooooooooooooooo++++o oooooo++++",
"oooooooooooooooo+++oo ++++++           +oooooooooooooooooooooooooooooooooooo++++++ooo ++++++++++",
"oooooooooooooooo+++o+ +++++++++o++++++++ooooooooooooooooooooooooooooooooooooo+++++ooo ++++++++++",
"oooooooooooooooo+++++ ++++++++oo++++++++oooooooooooooooooooooooooooooooooooooo+++++o+ ++++++++++",
"oooooooooooooooo+++++ ++++++++oo++++++++oooooooooooooooooooooooooooooooooooooo++++oo+ ++++++++++",
"oooooooooooooooo+++++ ++++++++++++++++++oooooooooooooooooooooooooooooooooooo+++++++++ ++++++++++",
"oooooooooooooooo+++++ ++++++++++++++++++oooooooooooooooooooooooooooooooooooo+++++++++ ++++++++++",
"oooooooooooooooo+++++ ++++++++++++++++++oooooooooooooooooooooooooooooooooooo+++++++++ ++++++++++",
"oooooooooooooooo++++++ +++++++++++++++++oooooooooooooooooooooooooooooooooooo++++++++ +++++++++++",
"oooooooooooooooooooooo ooooooooooooooooooooooooooooooooo++++++++++++++++++++++++++++ +++++++++++",
"oooooooooooooooooooooo ooooooooooooooooooooooooooooooooo++++++++++++++++++++++++++++ +++++++++++",
"oooooooooooooooooooooo ooooooooooooooooooooooooooooooooo++++++++++++++++++++++++++++ +++++++++++",
"ooooooooooooooooooooooo oooooooooooooooooooooooooooooooo+++++++++++++++++++++++++++ ++++++++++++",
"ooooooooooooooooooooooo.oooooooooooooooooooooooo++++  +++++++++++++++++++++++++++++ ++++++++++++",
"oooooooooooooooooooooooo ooooooooooooooooooooooo++++  ++++++++++++++++++++++++++++ +++++++++++++",
"oooooooooooooooooooooooo ooooooooooooooooooooooo++++  ++++++++++++++++++++++++++++ +++++++++++++",
"ooooooooooooooooooooooooo oooooooooooooooooooooo++++  +++++++++++++++++++++++++++ ++++++++++++++",
"oooooooooooooooo++++++++o ++++++oooooooooooooooo+ooo  +++++++++++++++++++++++++++ oo++++++++++++",
"oooooooooooooooo++++++++++ +++++oooooooooooooooo+ooo++++++++++++++++++++++++++++ ooo++++++++++++",
"oooooooooooooooo+++++++++++ ++++oooooooooooooooooooo+++++++++++++++++++++++++++ ++oo+o++++++++++",
"oooooooooooooooo+++++++++++ ++++oooooooooooooooooooo+++++++++++++++++++++++++++ ++oooo++++++++++",
"oooooooooooooooo++++++++++++ +++oooooooooooo++oooo++++++++++++++++++++++++++++ +++oo++++++++++++",
"oooooooooooooooo+++++++++++++ ++oooooooooooo++oooo++++++++++oo+++++++++++++++ ++++oo++++++++++++",
"oooooooooooooooo++++++++++++++ +oooooooooooo+++                    +++++++++ +++oooo++++++++++++",
"oooooooooooooooo+++++++++++++++ oooooooooooo+  ++++++++++++++++++++  ++++++ ++++oooo++++++++++++",
"oooooooooooooooo++++oooooooooooo  +++++++++++++                    oooooo  ooooooooooooooooooooo",
"oooooooooooooooo++++oooooooooooo++ ++++++++++++++++++++++++++ooo+ooooooo ooooooooooooooooooooooo",
"oooooooooooooooo++++oooooooooooo+++  +++++++++++++++++++++++++oo++oooo  oooooooooooooooooooooooo",
"oooooooooooooooo++++oooooooooooo+++++  +++++++++++++++++++++++oo++oo. oooooooooooooooooooooooooo",
"oooooooooooooooo++oooooooooooooo+++++++  +++++++++++++++++++oooo++  oooooooooooooooooooooooooooo",
"oooooooooooooooo++oooooooooooooo+++++++o+   ++++++++++++++++ooo   ++oooooooooooooooooooooooooooo",
"oooooooooooooooo++++oooooooooooo++++++oo+ooo    +++++++++++    o++++oooooooooooooooooooooooooooo",
"oooooooooooooooo++++oooooooooooo++++++oooooo++++           +oooo++++oooooooooooooooooooooooooooo",
"oooooooooooooooooooooooooooooooooooooooooooooooo++++++++oooooooo++++++++oooooooooooooooooooooooo",
"oooooooooooooooooooooooooooooooooooooooooooooooo++++++++oooooooo++++++++oooooooooooooooooooooooo",
"oooooooooooooooooooooooooooooooooooooooooooooooo++++++++oooooooo++++++++oooooooooooooooooooooooo",
"oooooooooooooooooooooooooooooooooooooooooooooooo++++++++oooooooo++++++++oooooooooooooooooooooooo",
"oooooooooooooooooooooooooooooooooooooooooooooooooo+++++++ooooo+o++++++++oooooooooooooooooooooooo",
"oooooooooooooooooooooooooooooooooooooooooooooooooo++++++oooooooo++++++++oooooooooooooooooooooooo",
"oooooooooooooooooooooooooooooooooooooooooooooooooo++++++oooooooo++++++++oooooooooooooooooooooooo",
"oooooooooooooooooooooooooooooooooooooooooooooooooo++++++oooooooo++++++++oooooooooooooooooooooooo"
};
