/* XPM */
static char *ce508aa0cd5b4e1ec0fdd354f60e0e76Q27rJiMg3p3AhfUv[] = {
/* columns rows colors chars-per-pixel */
"96 96 9 1 ",
"  c None",
". c black",
"X c #010000",
"o c #000100",
"O c #000001",
"+ c #9AA69A",
"@ c #9AA69B",
"# c #9BA69B",
"$ c #9AA79B",
/* pixels */
"@@@@@@@@@@@@@@@@@@@@@@@@@@  @@@@@@@@@@@@ @@@@@@@@@@@@@@@ @@@@@@@$@@@@@@@@@@@@@@@@@@@@$@@@@@@@@$@",
"@@@@@@@@@@@@@$@@ @@@@@@@@@@@ @@@@@@@@@@@@@@@@@@@@@@@@@@@@@@@@@@@@@@@@@@@@@@@@@@@@@@@@@@@@@@@@@@@",
" @@@@@@@@@@@@@@@@@@@@@@@@@@#@@@@@ @@ @@@@@@@@@@@@@@@@@@  @@@@@@@@@@@@ @@@@@@@@@@@@@@@@@ $@@$@#@@",
"@@@@@@@@@@@@@@@@@@@@@@@@@@@@@@@@@@@@@@@@@@@@@@@@@@@@@@#@@@@@@$@@@@@@ @@@@@@@@@@@@@@@@@@@@@@@ @@@",
"# @@@@@@@@@@@@@@@@@@@@@@@@@@@@@@@@@@@@@@@@@ @@@@@@@@@@@$@@$@@@@@@@@@@@@@@@@@$@@@@@@@@@@@@@@@@@@@",
"@@@@@@@@@@@@@@@@@@@ @@@@@@@@@@@@@@@@@@@@@@@@@ @@@@@@@@@@@@@@@@@@@@@@@@@@@@@@@@@@@#@@@@@@@@@@@ @@",
"@@@@@@@@@@@@@@@@@@@@@@@@@@@@@@@@@@@@@@@@@@@@@@@@@@ @ @@@@@@@@@@@@@ @@@@@@@@@@@#@ @@@@@  @@@@@@@@",
"@@@@@@@@@@@@@@@@@@@@@@@@@@@@ @@@@@@@@@@@ @@@@ @@@@@@@@@@@@@@@$@@@@@@@@@@@@@@@@@@@@@@@@@@@ @@@@$@",
"#@@@@@@@@@@@@@@@@@@@@@@@@@@@@@@@@@@@@@@@@@@@@@@@@@@@@@@@@@$@@@@@@@@@@@@@@@@@ @@@@@ @@@@ @ @@@@@@",
"@@@@@  @@@@@@$@@@@@@@@@@@@@@@@@@@@@@@@@@@@@@@@@@@ @@@@@@@#@@@$@@@@@@@@@@@@@@@@@@@@ @@@@@@@@@@@@@",
"@@@ @@@@@@@@@@@@@@@@@@@@@@@@@@@@@@@@@@@@@@@@@@@@@@@ @@@@@@@@@@@@$@@$@@$@#@@@@@@@@@@@@@@@@@@@@@@@",
"@@@@@@@@@#@@@@@@@@@$@@@@@@@@@@@@@@@@@@@@@@@@@@@@@@@#@@@@@@@@@@@ @@@@@@@@@@@@@@@@@#@@@@@@@@@@@@@@",
" @@@@@@ @@@@@@ @@@@@@@@@@@@@@@@@@@@@@@@@@@@$@@@@@@@@@@@@@@@@@@ @@@@@@@@@@$@@@@@@@@@@@@@@@@@@@@@@",
"@@@@@@@@ @@@@@@@@@@@@@ @@@@@@@@@@@$@@@@@@@@@@@@@  @@@@@@@@@@@ @@@@@@@@@@@@@@@@@ @@@@@@@@@@@@@@@@",
"@@@@@@@@ @@@@@@@@@@@@@@@@@@@@@@@@@@@@@@@@@@@@@@@@@@@@@@@ @@@@@@@@@@@@@@@@@@@@@@@@@$@@@@@@@@@@@@@",
"@@@@@@@@@@@@@@@@@@@@@@$@@@@@@@@@@ @@@@@XXXXXXXXXXXX@@@@@@@@@@@@@$@@@@@@@@@@@@ @@@@@@@@@@@@@@@@@@",
"#@@@$@@@@@@@@@@@@@@@@@@@@@@#@@@@@$$$$$$XXXXXXXXXXXX@@@@@@@@ @@@@@@ @@@@@@$@@@@@@@@@@@@@@@@@@@@@@",
"@@@@@@@@@@@@@@@@@@@@@@@@@@@@@@@@@$$$$$$XXXXXXXXXXXX@@@@@@ @@@@@@@@@@@@@@@@@@@@ @@@@@@@@@@@@@@@@@",
"@@@@@@@@@@@@ @@@@@ @@@@@@@@@@@@@@XXXXXXXXX   XXX   XXXXXX@@ @@@@@@@@@@@@@@@@@@@@@@@@@@@@@@@@@@@@",
"@@@@$@@@@@@@@@@@@@@@@@@@@@@@@@@@$XXXXXXXXX   XXX   XXXXXX@@@@@@@@@@@@@@@@@@@@@@@@@@@@@@@@@@@@@@@",
"@@ @@@@@@@@@@@@@@@@@@@@@@@@@@@@@$XXXXXXXXX   XXX   XXXXXX@@$@@@@@@@@@@@@@@@@@@@@@@@@@@@@@@ $@@@@",
"@@@@@@@@@@@@@@@@@@@@@@@@@@@@@@@@$XXX                     XXX@@@@@@@@@@@@@ @@@@@@@@@@@@@@@@@@@@@@",
"@@ @@@@@@@@@@@ @@@@@@@@@@@@@@@@@$XXX                     XXX@@@@@ @@@ @@@@@@@ @@@@@@@@@@@@@@@@@@",
"@@@@@@@@@@@@@@@@@@@@@@@@@@@@@@@@$XXX                     XXX@@@@@@@@@@@@@@@@@@@@@@@ @ @@@@@@@@@@",
"@@@@@@@@@@@@@@@ @@@@@#@@@@@@$@@@$XXX                  XXXXXX$$$$$@@@@@@@@@@@@@XXX @@@@@@@@@@@ @@",
"@@@@@@@@@@@@@@@@@@@@@@@@@@@@@@@@$XXX                  XXXXXX$$@@@@@@ @@@@@@@@@XXX@@@@@@@@@@@@@@@",
"@@@@@@@@@@@@@@@@@ @@@@@@@@@@@@@@$XXX                  XXXXXX@@@@@ @@@@@@@@@@@@XXX@@ @@@@@@@@@@@ ",
"@@@@@@@@@@@@@@@@@@@@@@@@@@@@@@@@$XXX                  XXX$$$@@@@@@@@@@@@@@@@@@XXX@@@@@@@@@@@@@@@",
"@@@ @@@@@@@@@@@@@@@@@@@@@@@@ @@@$XXX                  XXX@@@@@@@@@@@@@@@@@@@@@XXX@@@ @@@@@@@@#@@",
"@@@@@@@@@@@@ @@@@@@@@@@@@@@@@@@@$XXX                  XXX@@@@@@@ @@@@@@@@@@@@@XXX@@@@@@@@@@@@@@@",
"@@@@@@@@@@@@@@@@@@@@ @@@@@@@@@@@$XXXXXX            XXXXXX$@@@@@@@@@@@@@ @@@XXXXXX@@@@@@@@@@@@@@@",
"@@@@@@@@@@@ @@@@@@@@ @@@@@ @@@@@@XXXXXX            XXXXXX @@@@@@@@@@@@@@@@@XXXXXX@@ @@@@@@@@@@@@",
"@@@@@@@@$$@@@@@@@@@@@@@@@@@@@@@@$XXXXXX            XXXXXX$@@@$@@@@@@@@@ @@@XXXXXX@ @@@@@@@@@@@@@",
"@@@@@@@@@$ @@@@@@@@@@@@ @@@@@@@@$$@@ $$XXXXXXXXXXXXXXX$$$$@@@@@@@@@@@@@@@@@XXX@@@@@@@@@@@@@@@@@@",
"@@@@@@@@@@@@@@$$@@ @@@@@@@@@@@@@$$$@$$$XXXXXXXXXXXXXXX@@$@@@@@@@@@@@@@@@@@@XXX@@@@@@@@@@@@@ @@@ ",
"@@@@@@@@@@@@@@$$@@@@@@@@@@@@@@@@ $@@$$$XXXXXXXXXXXXXXX@@$@@@@@@@@@@@@@@@@@@XXX@@@@@@@@@@@@@@@@@@",
"@@@@@@@@@@@@$@@XXX@@@@@@ @@@$@@@@@@@@@@@@@@@$XXX$$@@@@@@@@@@@@@@@@@@@@@@@@@XXX@@@@@@@@@@@@@@@@@ ",
"@@@@@@@@@@@@$$@XXX@$@  @@@@@@@@@@@@@@@@@@@@@$XXX$$@@@@@@@@@@@@@@@@@@@@@@@@@XXX@@@@@@@@@@@@@@@@@@",
"@@@@@@ @@@$@$$$XXX@@@@@@@@@@@@@@@@@@@@@@@@$$$XXX$@@@@@@@@@@@@@@@@@@@@@@@ @@XXX@@@ @@@@@@@@@@@@@@",
"@@ #$$$@@@@@XXXXXX@@@@$@@@@@@@@@@@@@@@@@@@$$$XXX@@@@@@@@@@@@@@@@@@@@@@@@@  XXX@@@@@@@@@@@@@@@@@@",
"@@@@@@@@@@@ XXXXXX$$$$@@@@@@@@@@@@@@@@@@@@@@$XXX@@@@@@@@@@@@@@@@@@@@@@@@@@@XXX@@@@@@@@@@@@@@@@@@",
"@@@@@@@@@@@@XXXXXX$$$$@@@@@@@ @@@@@@@@@@@@@@$XXX@@@@@@@@@@@@@@@@@@@ @@@@@@@XXX@@@@@@@@@@@@@@@@@@",
"@@ @@@@@@@$$XXXXXXXXXXXX@@@@@@@@@@@@@@$ @@@@$XXX@@@@@@@@@@@@@@@@@@ @@@@@XXXXXX@$@ @@@@@@@@@@@@@@",
"@@@@@@@@@@$ XXXXXXXXXXXX@@@@@@@@@@@@$$$$@@@@$XXX@@@@@@@@@@@@@@@@@@@@@@@@XXXXXX @@@@@@@@@@@@@@@@ ",
"@@@@@@@@@ $$XXXXXXXXXXXX@@@@@@@@@@$$$$$$@@$$$XXX@@@@@@@@@@@@@@@@@@@@@@@@XXXXXX@@@@@@@@@@@@@@@@@@",
"@ @@@@@@@$$$XXX$$$$$$XXXXXXXXXXXXXXXXXXXXXXXXXXX@@@@ @@@@@@@@@ @@@@@@@@@XXX@@@@@@@@@@@@@@@@@@@$@",
"@@@@@@@@$$$$XXX$$$$$$XXXXXXXXXXXXXXXXXXXXXXXXXXX@@@@@@@@@@@@@@$$@@@@@@@@XXX@@@@@@@@@@@@@@@ @@@@@",
"@@@@@@@@$ $$XXX@$$$ $XXXXXXXXXXXXXXXXXXXXXXXXXXX@@@@@@@@@@@@@@@$@@@@@@@@XXX@@@@@@@@@@@ @@@@@@@@@",
"@@@@@@@@@@@@XXX@@@@@@@@@@@@@@ @@@$ @@@@@$$XXXXXXXXXXXXXXXXXXXXXXXXXXXXXX$$@@@@@@@@@@@@@@@@@@@@@@",
"@@@@@@@@@@@@XXX@@@@@@@@@@@@@@@@@@$$@@@@@$$XXXXXXXXXXXXXXXXXXXXXXXXXXXXXX@@@@@@@@@@@@@@@@@@@@@@@@",
"@@@@@@@ @@@@XXX$@@@@@@@@@@@#@@@@@@@@@@@@$@XXXXXXXXXXXXXXXXXXXXXXXXXXXXXX@@@@$@@@@ @@@@@@@@@@@@@@",
"@@@@@@@@@@@@XXX$@@@@@@@@@@@@@@@@@@@@@@@@ @XXX$@@@@@@@@@@@@@@@@@@@@XXXXXX@@@@@@@@@@@@@ @@@@@@@@@@",
"@@@@@@@@@@@@XXX$@@@@@@@@@@@@@@@@@@@@@@@@$@XXX$$$@@@ @@@@@@@@@@@@@@XXXXXX@@@@@@@@@@@@@@@@@@@@@@@@",
"@@@@@@@@@@@$XXX$@@@@@@@@@@@@@@@@@@@@@@@@$$XXX@$$@@@@@@@@@@@@@@@@@@XXXXXX@@@@@ @@@@@@@@@@@@@@@ @@",
" @@@@@@ @@$$XXX$@@@@@@@@@@@@@@@ @@@@@@@@$$XXX@@@@@@@@@@@@@@ @@@@@@@@@@@@@@@@@@@@@@@@@@@@@@@@@@@@",
"@@@@@ @@@@$$XXX$@@@@@@@@@@@@@@@@@@@@@@@$$$XXX@@@@@@@@ @@@@@@@@@@@@@@@@$@@@@@@@@@@@@@@@@@@@@@@@@@",
"@@@@@@@@@@@@XXX$@@@@@#@@@@@@@@@@@@@@@@@@@@XXX@@@@@@@@@@@@ @@@@@@@@@@@@@@@@@@@@@@@@@@@@@@@ @@@@@@",
"@@@@@@@@@@@@XXX$@@@@@@@@@@@@@@@@@@@@@@@@@@XXX@@@@@@@@@@@@@@@@@ @$@@@@@@@@ @@@@@@@@@@@@@@@@@@@@$@",
"@@@@@@$$@@@@XXX$@@@ @@@@@@@@@@@@@@@@@@@@@@XXX@@@@@@@@@@@@@@@@@@@@@@@@@@@@@@@@@@@@@@@@@@@@@@@@@@@",
"@@@@@@$ @@@@XXX$@@ @@@@@@@@@@@@ @@@@@@@@@@XXX@@@@@@@@@@@@@@@@@@@@@@@@@@@@@@@@@@@@@@@@@@@@@@@@@@@",
"@@@@$@@@@@@@XXX$@@@@@@@@@@@@@@@@@@@@ @@@@@XXXXXX@@@@@@@@@@@@@@@@@@@@@@@@@@@@@@@@@@@@@@@@@@@@@@@@",
"@@@@@@@@@@@$XXX$@@@@@@@@@@@@@@@@@@@@@@@@@@XXXXXX@@@@@@@@@@@@@@@@@@@@@@@@@@@@@@@@@@@@@@@@ @@@@@@@",
"@@@@@@@@@@$$XXX$@@@@@@@ @@@@@@@@@@@@@@@@@ XXXXXX@@@@@@@@@@@@@@@@$@@@@@@ @@@@@@@@@@@@@@@@@@@@@@@@",
"@@@@@@@@@@$$XXX$@@@@@@@@@@@@@@@@ @@@@@@@@@@@@XXXXXX@@@@@@@@@@@@@@@@@@@@ @@@ @@@@@@@@@@@@@@@@@@$@",
"@@@ @@@@@ @@XXX@@@@@@@@@@@@@@@@@@@@@@@@@ @@@@XXXXXX$$$$@@@@@@@@@@@@@@@@@@@@@@@@@@@@@@@@@@@@@@@@@",
"@@@@@@@@@@ @XXX@@@@@@@@@@@ @@@@@@@@@@@@@@@@@ XXXXXX$$$@@@@@@@@@@@@@@@@@@@@@@@@@@@@@@@@@@@@@@@@@@",
"@@@@@@@@@@@@@@@@@@@@@@@@@@@@@@@@@@@@@@@@@@@@@@@@XXX$@@@@@@@@@@@@@@@@@@@@@@@@@@@@@@@@@@@@@@@@@@@@",
"@@@@@@@@@@@@@@@@@@@ @@@@@@@@@@@@@@@@  @@@@@@ @@@XXX$@@@@@@@@@@@@@@@@@@ @@@@@@@@@@@@@@@@@@@@@@@@@",
"@@@@@@@@ @@@@@@@@@@@@@@@@@@@@@@@@@@@@@$$@@@@@@@@XXX@@@@@$$$$@@$$@@@@@@@@@@@@@@$$@@ @@@@@ @@@@@@@",
"@@@@@@@@@@@@@@@@@@@@@@@@@@@@ @@@@@@@@@@$@@@@@@@@XXXXXXXXXXXX@@$$@@@@@@@@@@@@@@@$@@@@@@@ @@@@ @@ ",
"@@@@ @@@@@@@@@@@@@@@@@@@@ @@@@@@@@@@@@$$@@@@@@@@XXXXXXXXXXXX@@$ @@@@@@@@@@@@@@@ @@@@@@@@@@@@@@@@",
"@@@@@@@@@@@@@@@@@@@$@@@@@@@@@@@@@@$@@@$$@@@ @@@@XXXXXXXXXXXX@@$$@@@@@@@@@@@@@@@@@@@@@@@@@@  @@@@",
"@@@@@@@@@@@@@@@@$$XXXXXXXXXXXXXXXXXXXXXXXXXXXXXXXXX@@@@@@@@@XXX$@@@@@@@@@@@@@@@@@@@@@@@@@@@@@@@ ",
"@@@@@@@@@@@@@@@@$$XXXXXXXXXXXXXXXXXXXXXXXXXXXXXXXXX@@@@@@@@@XXX$@@@@@@@@@@@@@@@@@@@@@@@@@@@@@@@@",
"@@@@@@@@@@@@@@@@$@XXXXXXXXXXXXXXXXXXXXXXXXXXXXXXXXX@@@@@@@@@XXX@$@@@@@@@@@@@@@@@@@@@@ @@@@@@@@@@",
"@@@@@@@@@ @@@@@XXX$$$$@@@@@@@@@@@@@@ $$$@@@@@@@@@@@@@@@$@@@@@@@XXX@@@@@@@@@@@@@@@@@@@@@@@@@@@@@@",
"@ @@@@@@ @@@@@@XXX$$@@@@@@@@@@@@ @@@@@@@@@@@ @@ @@@@@@@@@@@@@@@XXX$$$$@@@@@@@@@@@@@@@@@@@ @@@@@@",
"@@@@@@@@@@@@@@@XXX$$@@@@@@@@@@@@@@@@@@@@@@@@@@@@@@@ @@@@@@@@@@@XXX$$@$@@@@@@@@@@@@@@@@@@@@@@@@@@",
"@@@@@@@@@@@@@@@XXX$@@@@@@@@@@@@@@@@@@@@@@@@@@#@@@@@@@@@@@@@@@@@XXXXXX$$@@@@@@@@@@@@@@@@@@@@@ @@@",
"@@@@@@@@@@@@@@@XXX@@@@@@@@@@@@@@@@@ @@@@@@@@@@@@@@@@$@@@@@@@@@@XXXXXX$$@@@@@@@@@@@$@@@@@@@@@@@@@",
"@@@@@ @@@@@@@@@XXX$$@@@@@@@@@@ $@@@@@@@@@@@@@@@@@@@@@@@@@@@@@ @XXXXXX@@@@@@@@@@@@@@@@@@@@@#@@@@@",
"@@@@@@@@@@@@@@@XXX$$@$@@ @@@@@$$@@@@@@@@@@@@@@@@@@@@@@@@@@@@@@@@@@XXX@@@@@@@@@@@@@@@@@@@@@@@@@@@",
"@@@@@@@@@@@@@@@XXX$@$$@@$@@@@@@@@@@@@@@@@@@@@@$@@@@@@@@@@@@@@@@@@@XXX@@@@@@@@@@@@@@@@@@@@@@@@@@@",
"@@@ @@@@@@@@@@@XXX@@ @@@$$@@@@@@@@@@@@@ @@@@@@@@@@ @@@@@@@@@@@@@@@XXX@$@@@@@@@@@@@@@@@@@@@@@@@@@",
"@@@@@@ @@@@@@@@XXX@@@@@@@@@@@@@@@@@@@@@@@@@@@@ @@@@ @@@@@@@@@@@@@@@@ @@@@@@@@@@@@@@@@@@@@@@@@@@@",
"@@@@@@@@@@@@ @@XXX@$@@@@@@@@@@$ @@@@@@@@@@@@@@@@@$@@@@@ @@@@@@@@@@@@@@@@@@@@@@@@@@@@@@@@@@@@@ @@",
"@@@@@@@@@@@@@@@XXX$$@@@@@@@@@@$$@@@@@$@@@@@@@@@@@@@@@@@@@@@@@$@@@@@@@@@@@@@@@@@ @@$@@@@@@@@@@@@@",
"@@@@@@@@@@@@@$@@$$$$@@@@@@@@@@@@@@@@@@@@@@@@@@@@@@@@@@@@@@$@@@@@@@@@@@@@@@@@@@@@@@@@@@@@@@@@@@ @",
"@@@@@@@@@@@@@@@@@@@@@@@@@@@@@@ @@@@@@@@@@@@@@@@@@@@ @@@@@@@@@@@@@@@@@@@@@@@@@@@@ @@@@$@@@@@@@@@@",
"@@@@$ @@@@@@@@@@@@@@@@@@@@@@@@@@@@@@@@@@@@@@@@@@@$@@@@@@@@@@@@@@@@@@@@@@@@@@@@@@@@@@@@@@@@@@@@@@",
"@@@ @@@@@@@@@@@@@@@@@@@@@@@@@@@@@@@@@@@@@@@@@@@@@@@@@@@$@@@@@@@  @@@@@@@#@@@@@@@@@@@@@@@@@@@@@@@",
"@@ @@@@@ @@@@@@@@@@@@@@@@@@@@@@@@@@@@@@@@@@@@@@@@@@@@@@@@@@@@@@@@@@@@@@@@ @@@@@@@@@@@@@@@@@@@@@@",
"@@@@@@@@@@@@@@@@@@@@@@@@@@@@@@@@@@@@@@@@ @@@@@@@@@@@@@@@@@@@@@@@@@@@@@@@@@@@@@@@@@@@@@@@@@@@@@@@",
"@@@@@@@@@@@ @@@@@@@@@@@@@@@@@@@@@@@@@@@@@@ @@@@@@@@@@@@@@@@@@@@@@@@@@@@@@@@@@@@@@@@@  @@@@@ @@@ ",
"@@@@@@@@@@@@@@@@@@@@@@@@@@@@@@@@@@ @@@@ @@@@@@@@@@@@@@ $@@@@@@@@@@@@@@@@@@@@@@@@@@@@@@@@@@@@@@@@",
"@@@@@@@@@@@@@@@@@@@@@@@@ @@@@@@@@@@@@@@@@@#@@@@@@@@@@@@@@ @@@@@@@@@@@@@@@@@@ @@@@@@@@@@@@@#@@@@@"
};
