/* XPM */
static char *db0f9ba3f74f473cc5a7603f46293268EqlhOeGYNxs9Ibnx[] = {
/* columns rows colors chars-per-pixel */
"96 96 4 1 ",
"  c black",
". c #838282",
"X c #828382",
"o c #828283",
/* pixels */
"                                                                                                ",
"                                                                                                ",
"                                                                                                ",
"                                                                                                ",
"                                                                                                ",
"           .........................o...........oo.o........oX.X........Xo.........XXX.X....o   ",
"           .                                                                                X   ",
"           .     .........                                                                  .   ",
"           .     .       .          ..........                                 ...          .   ",
"           .     o       X          .        .                                 . .          .   ",
"           .     .       .          .        .                                 . .          .   ",
"           .     .       .          .        .                                 . X          .   ",
"           .     .       .          .        .                                 . .          .   ",
"     .....................o.....Xo...............X.........ooo..........XX.............o........",
"     .     .     .       .          .        .                                 . .          .   ",
"     .     .     .       .          .        .                                 . .          .   ",
"     .     .     .       .          .        .                                 . .          .   ",
"     .     .     .       .          .        .                                 . X          .   ",
"     .     .     .       .          .        .                                 . .          .   ",
"     .     .     .       .          .        .                                 . .          .   ",
"     .    ..     X       .          .        .                                 . .          .   ",
"     .    X.     o       .          .        .   ..                            . .          .   ",
"     .    ..     .       .          .        .   ..                            . .          .   ",
"     .    .X     .       o          .        .   ..                            X .          X   ",
"     .    .o     .       .   .      .        .   ..                            . .          .   ",
"     .    ...............................X.X.....Xo...Xooo.X.....X.......X.X...........o.o...   ",
"     .    .      ...............    .        .   ..                            . .              ",
"     .    .      .       .   . .    .        .   ..                            . .              ",
"     .    .      .       .   . .    .        .   ..                            . .              ",
"     .    .      .       .   . .    .        .   ..                            . .   ...        ",
"     .    .      .       X   . .    .        .   ..                            . .   . .        ",
"     .    .      .       .   . .    .        .   ..                oo          . .   . .        ",
"     .    o      .       .   . .    .        .   ..                ..          . .   . .        ",
"     .    .      .       .   o .    .        .   ..                ..          . .   . .        ",
"     .o...........XX............o.....o.............oX..X.................o................XX...",
"          .      .........   . .    .        .   ..                ..          X .   . .        ",
"          o      .           . .    .        .   ..                .X          . .   . .        ",
"          .      .           . .    .        X   ..                ..          . .   . .        ",
"          .      .           . .    .        .   X.                ..          . .   . .        ",
"          .      .           . .    ..........   ..                ..          . .   . .        ",
"          .      .           . .                 ..                ..          ...   X .        ",
"          .      .           . .                 ..                ..                . o        ",
"          .      .           . .                 ..                ..                . .        ",
"          .      o           o .                 .X                ..                . .        ",
"          .      o           . .                 ..           X.....o...........     X .        ",
"          .      o           . .                 ..           .    ..          X     . .        ",
"          .      .           . .                 ..           .    ..          .     . .        ",
"          .      .           . .o.......o...........Xo        .    ..          .     . .        ",
"      .X...............o.......X...........o..Xo...X...............................o.X.......Xoo",
"          .      .           . .                 ..  .        .    X.          .     . .        ",
"          .      .           . .                 ..  .        .    ..          .     . .        ",
"          .      ..X............                 ..  .        .    ..          .     . .        ",
"          .                  . .                 ..  .        .    X.          .     . .        ",
"          .                  . .                 ..  .        .    ..          .     . o        ",
"          .                  . .                 ..  .        .    ..          .     . .        ",
"          o                  . .                 ..  .        .    ..          X     . .        ",
"          .                  . .                 ..  .        .    ..          .     . o        ",
"          .                  . .                 ..  .        .    o.          .     X .        ",
"          .                  . .                 ..  .        .    ..          .     . .        ",
"          .                  . .                 ..  .        .    ..          .     . .        ",
"          .                  . .                 ..  .        .    ..          .     . .        ",
"          .   ....................o              ..  .        .    o.          .     . .        ",
"          .   .              . .  .              ..  .        .    ..          .     . .        ",
"     .................X......................o............................oo..........o.......X.",
"     .    .   .              . .  .              o.  .        .    ..          .     . .       .",
"     .    .   .              . .  .              X.  .        .    X.          X     . .       .",
"     ..................o...........................XX...X..o...X...XXX..XXo....X................",
"          .   .         . .  . .  .              ...Xo........XX..XXX.........XXX..  . .        ",
"          .   .         . .  . .  .              .o  o             .X             .  . .        ",
"          .   .         . .  . .  .              ..  .             .X             .  . .        ",
"          .   XX        . X  . .  .              .X  .             ..             .  . .        ",
"       .......X................................................o................o...............",
"       .  .   ..      . ...  . .  .              ..  .             ..             .  . .       .",
"       .  .   ..      .  X   . .  .              ..  .             ..             .  . .       o",
"       .  .   XX      .  .   . .  .              ..  .             ..             .  . .       .",
"       .  o   XX      .  .   . .  .              .....................o....o...o...  . .       o",
"       .  .   XX      ....   . .  o              ..  .             ..                . .       .",
"       X  .   X.             . .  .              ..  .             ..                . .       .",
"       X  .   ..               ...........XXX.oo......             ..                . .       .",
"       X  .   ..                  .              ..                ..                . .       .",
"       .  .   ..                  .              .X                .X                . .       .",
"       .  .   X.                  .              ..                ..                . .       .",
"       .  .   ..                  .              .o                                  . .       .",
"       .  .   .                   .              .o                                  . .       .",
"       .  .   .                   .              ..                                  o .       .",
"       o  .   .                   .              ..                                  o..       .",
"       .  .   .                   .              ..                                            .",
"       .      .                   .              ..                                            .",
"       o      o..........X.........              ..                                            .",
"       .                                         ..                                            .",
"       .                                                                                       .",
"       .                                                                                       .",
"       ........o.......o....o...........Xo...........o..o...............X...X...X..o............",
"                                                                                                ",
"                                                                                                ",
"                                                                                                "
};
